# xmcd
#
# Track frame offsets:
#	150
#	12854
#	25876
#	35886
#	52701
#	73872
#	93539
#	115365
#	178917
#
# Disc length: 3658 seconds
#
# Revision: 0
# Processed by: cddbd v1.5.2PL0 Copyright (c) Steve Scherf et al.
# Submitted via: dBpowerAMP V4.0
#
DISCID=790e4809
DTITLE=Fabian Riz - Traviarsâ
DYEAR=2005
DGENRE=
TTITLE0=Identitât (di un dopomisdi)
TTITLE1=Brigants al imbrunî
TTITLE2=Voi sicilians
TTITLE3=Blues de libertât
TTITLE4=Sanc ruspiôs
TTITLE5=Nord est produttif blues
TTITLE6=Sintîmi
TTITLE7=Om sul confin
TTITLE8=DATA
EXTD=
EXTT0=
EXTT1=
EXTT2=
EXTT3=
EXTT4=
EXTT5=
EXTT6=
EXTT7=
EXTT8=
PLAYORDER=
